<svg width="24" height="25" viewBox="0 0 24 25" fill="none" xmlns="http://www.w3.org/2000/svg">
<g id="phone 1" clip-path="url(#clip0_8_448)">
<path id="Vector" d="M8.66965 12.2016C9.44762 13.7921 10.7369 15.0755 12.3309 15.8463C12.4475 15.9015 12.5765 15.9255 12.7052 15.9157C12.8339 15.906 12.9579 15.8629 13.0648 15.7907L15.4119 14.2256C15.5157 14.1564 15.6352 14.1142 15.7594 14.1028C15.8837 14.0914 16.0088 14.1111 16.1235 14.1603L20.5144 16.0421C20.6636 16.1055 20.7881 16.2156 20.8693 16.3559C20.9504 16.4962 20.9838 16.659 20.9643 16.8199C20.8255 17.9059 20.2956 18.9041 19.4739 19.6276C18.6521 20.351 17.5948 20.7502 16.5 20.7502C13.1185 20.7502 9.87548 19.4069 7.48439 17.0158C5.0933 14.6247 3.75 11.3817 3.75 8.00021C3.75006 6.90538 4.14918 5.8481 4.87264 5.02635C5.5961 4.2046 6.59428 3.67472 7.68028 3.53593C7.84117 3.51646 8.00403 3.54981 8.14432 3.63094C8.28461 3.71208 8.39473 3.8366 8.4581 3.98577L10.3416 8.38057C10.3903 8.49424 10.4101 8.6182 10.3994 8.7414C10.3886 8.86461 10.3475 8.98323 10.2798 9.08672L8.72011 11.4698C8.64912 11.577 8.60716 11.7008 8.59831 11.8291C8.58947 11.9573 8.61405 12.0857 8.66965 12.2016V12.2016Z" stroke="#0066FF" stroke-width="1.5" stroke-linecap="round" stroke-linejoin="round"/>
</g>
<defs>
<clipPath id="clip0_8_448">
<rect width="24" height="24" fill="white" transform="translate(0 0.5)"/>
</clipPath>
</defs>
</svg>
