<svg width="20" height="21" viewBox="0 0 20 21" fill="none" xmlns="http://www.w3.org/2000/svg">
<g id="fi:link">
<path id="Vector" d="M8.33325 11.3333C8.69113 11.8118 9.14772 12.2076 9.67204 12.4941C10.1964 12.7806 10.7762 12.9509 11.3721 12.9936C11.9681 13.0363 12.5662 12.9503 13.126 12.7415C13.6858 12.5327 14.1942 12.2059 14.6166 11.7833L17.1166 9.28333C17.8756 8.49749 18.2956 7.44498 18.2861 6.35249C18.2766 5.26001 17.8384 4.21495 17.0658 3.44242C16.2933 2.66989 15.2482 2.23168 14.1558 2.22219C13.0633 2.21269 12.0108 2.63267 11.2249 3.39166L9.79159 4.81666" stroke="#0066FF" stroke-width="1.5" stroke-linecap="round" stroke-linejoin="round"/>
<path id="Vector_2" d="M11.6666 9.66667C11.3087 9.18823 10.8521 8.79235 10.3278 8.50588C9.80347 8.21942 9.22367 8.04907 8.62771 8.00639C8.03176 7.96371 7.4336 8.04969 6.8738 8.25851C6.314 8.46734 5.80566 8.79411 5.38326 9.21667L2.88326 11.7167C2.12426 12.5025 1.70429 13.555 1.71378 14.6475C1.72327 15.74 2.16148 16.785 2.93401 17.5576C3.70655 18.3301 4.7516 18.7683 5.84408 18.7778C6.93657 18.7873 7.98908 18.3673 8.77492 17.6083L10.1999 16.1833" stroke="#0066FF" stroke-width="1.5" stroke-linecap="round" stroke-linejoin="round"/>
</g>
</svg>
