<svg width="32" height="32" viewBox="0 0 32 32" fill="none" xmlns="http://www.w3.org/2000/svg">
<g clip-path="url(#clip0_37_647)">
<path opacity="0.2" d="M11.5595 15.6021C12.5968 17.7228 14.3158 19.434 16.4412 20.4616C16.5967 20.5353 16.7687 20.5672 16.9403 20.5542C17.1119 20.5413 17.2771 20.4838 17.4198 20.3876L20.5492 18.3008C20.6877 18.2085 20.8469 18.1522 21.0126 18.137C21.1782 18.1217 21.3451 18.1481 21.498 18.2136L27.3526 20.7228C27.5515 20.8072 27.7175 20.9541 27.8257 21.1411C27.9339 21.3282 27.9783 21.5453 27.9524 21.7598C27.7673 23.2078 27.0608 24.5388 25.9652 25.5034C24.8695 26.468 23.4598 27.0001 22 27.0002C17.4913 27.0002 13.1673 25.2091 9.97919 22.021C6.79107 18.8329 5 14.5089 5 10.0002C5.00008 8.54043 5.53224 7.13073 6.49685 6.03506C7.46146 4.93939 8.79237 4.23289 10.2404 4.04784C10.4549 4.02188 10.672 4.06634 10.8591 4.17452C11.0461 4.2827 11.193 4.44874 11.2775 4.64762L13.7888 10.5074C13.8537 10.6589 13.8802 10.8242 13.8658 10.9885C13.8514 11.1527 13.7967 11.3109 13.7064 11.4489L11.6268 14.6263C11.5322 14.7693 11.4762 14.9343 11.4644 15.1054C11.4526 15.2764 11.4854 15.4475 11.5595 15.6021V15.6021Z" fill="#0A65CC"/>
<path d="M11.5595 15.6021C12.5968 17.7228 14.3158 19.434 16.4412 20.4616C16.5967 20.5353 16.7687 20.5672 16.9403 20.5542C17.1119 20.5413 17.2771 20.4838 17.4198 20.3876L20.5492 18.3008C20.6877 18.2085 20.8469 18.1522 21.0126 18.137C21.1782 18.1217 21.3451 18.1481 21.498 18.2136L27.3526 20.7228C27.5515 20.8072 27.7175 20.9541 27.8257 21.1411C27.9339 21.3282 27.9783 21.5453 27.9524 21.7598C27.7673 23.2078 27.0608 24.5388 25.9652 25.5034C24.8695 26.468 23.4598 27.0001 22 27.0002C17.4913 27.0002 13.1673 25.2091 9.97919 22.021C6.79107 18.8329 5 14.5089 5 10.0002C5.00008 8.54043 5.53224 7.13073 6.49685 6.03506C7.46146 4.93939 8.79237 4.23289 10.2404 4.04784C10.4549 4.02188 10.672 4.06634 10.8591 4.17452C11.0461 4.2827 11.193 4.44874 11.2775 4.64762L13.7888 10.5074C13.8537 10.6589 13.8802 10.8242 13.8658 10.9885C13.8514 11.1527 13.7967 11.3109 13.7064 11.4489L11.6268 14.6263C11.5322 14.7693 11.4762 14.9343 11.4644 15.1054C11.4526 15.2764 11.4854 15.4475 11.5595 15.6021V15.6021Z" stroke="#0A65CC" stroke-width="1.8" stroke-linecap="round" stroke-linejoin="round"/>
<path d="M19.9268 5C21.622 5.45592 23.1677 6.34928 24.409 7.59059C25.6503 8.8319 26.5437 10.3776 26.9996 12.0728" stroke="#0A65CC" stroke-width="1.8" stroke-linecap="round" stroke-linejoin="round"/>
<path d="M18.8916 8.86505C19.9087 9.1386 20.8362 9.67462 21.5809 10.4194C22.3257 11.1642 22.8618 12.0916 23.1353 13.1088" stroke="#0A65CC" stroke-width="1.8" stroke-linecap="round" stroke-linejoin="round"/>
</g>
<defs>
<clipPath id="clip0_37_647">
<rect width="32" height="32" fill="white"/>
</clipPath>
</defs>
</svg>
