<svg width="48" height="49" viewBox="0 0 48 49" fill="none" xmlns="http://www.w3.org/2000/svg">
<g id="fi:upload-cloud">
<path id="Vector" d="M32 32.5L24 24.5L16 32.5" stroke="#ADB2BA" stroke-width="3" stroke-linecap="round" stroke-linejoin="round"/>
<path id="Vector_2" d="M24 24.5V42.5" stroke="#ADB2BA" stroke-width="3" stroke-linecap="round" stroke-linejoin="round"/>
<path id="Vector_3" d="M40.7828 37.28C42.7335 36.2165 44.2745 34.5337 45.1626 32.4972C46.0507 30.4607 46.2353 28.1864 45.6873 26.0333C45.1392 23.8803 43.8898 21.971 42.1362 20.6069C40.3826 19.2427 38.2246 18.5014 36.0028 18.5H33.4829C32.8775 16.1585 31.7492 13.9846 30.1827 12.142C28.6163 10.2993 26.6525 8.83567 24.439 7.86118C22.2256 6.8867 19.82 6.42669 17.4031 6.51573C14.9862 6.60478 12.621 7.24057 10.4852 8.3753C8.34942 9.51003 6.49867 11.1142 5.07209 13.0671C3.64552 15.0201 2.68023 17.271 2.24881 19.6508C1.81739 22.0305 1.93106 24.477 2.58128 26.8065C3.23149 29.1359 4.40133 31.2877 6.00285 33.1" stroke="#ADB2BA" stroke-width="3" stroke-linecap="round" stroke-linejoin="round"/>
<path id="Vector_4" d="M32 32.5L24 24.5L16 32.5" stroke="#ADB2BA" stroke-width="3" stroke-linecap="round" stroke-linejoin="round"/>
</g>
</svg>
