<svg width="24" height="24" viewBox="0 0 24 24" fill="none" xmlns="http://www.w3.org/2000/svg">
<path d="M8.81763 15.1813L15.1816 8.81738" stroke="#0A65CC" stroke-width="1.5" stroke-linecap="round" stroke-linejoin="round"/>
<path d="M13.5904 16.7726L10.9388 19.4243C10.0948 20.268 8.95028 20.7419 7.75694 20.7418C6.5636 20.7417 5.41916 20.2676 4.57534 19.4238C3.73152 18.5799 3.25743 17.4355 3.25732 16.2422C3.25722 15.0488 3.73112 13.9043 4.5748 13.0603L7.22645 10.4087" stroke="#0A65CC" stroke-width="1.5" stroke-linecap="round" stroke-linejoin="round"/>
<path d="M16.7729 13.5904L19.4246 10.9388C20.2682 10.0948 20.7421 8.95028 20.742 7.75694C20.7419 6.5636 20.2678 5.41916 19.424 4.57534C18.5802 3.73152 17.4358 3.25743 16.2424 3.25732C15.0491 3.25722 13.9046 3.73112 13.0606 4.5748L10.4089 7.22645" stroke="#0A65CC" stroke-width="1.5" stroke-linecap="round" stroke-linejoin="round"/>
</svg>
